<?xml version="1.0" encoding="UTF-8" standalone="no"?>
<svg
   xmlns:dc="http://purl.org/dc/elements/1.1/"
   xmlns:cc="http://creativecommons.org/ns#"
   xmlns:rdf="http://www.w3.org/1999/02/22-rdf-syntax-ns#"
   xmlns:svg="http://www.w3.org/2000/svg"
   xmlns="http://www.w3.org/2000/svg"
   xmlns:sodipodi="http://sodipodi.sourceforge.net/DTD/sodipodi-0.dtd"
   xmlns:inkscape="http://www.inkscape.org/namespaces/inkscape"
   inkscape:version="1.0 (4035a4fb49, 2020-05-01)"
   sodipodi:docname="hacker.svg"
   xml:space="preserve"
   style="enable-background:new 0 0 512 512;"
   viewBox="0 0 512 512"
   y="0px"
   x="0px"
   id="Capa_1"
   version="1.1"><metadata
   id="metadata89"><rdf:RDF><cc:Work
       rdf:about=""><dc:format>image/svg+xml</dc:format><dc:type
         rdf:resource="http://purl.org/dc/dcmitype/StillImage" /></cc:Work></rdf:RDF></metadata><defs
   id="defs87" /><sodipodi:namedview
   inkscape:current-layer="Capa_1"
   inkscape:window-maximized="1"
   inkscape:window-y="-8"
   inkscape:window-x="-8"
   inkscape:cy="232.63513"
   inkscape:cx="559.97902"
   inkscape:zoom="0.49535526"
   showgrid="false"
   id="namedview85"
   inkscape:window-height="705"
   inkscape:window-width="1366"
   inkscape:pageshadow="2"
   inkscape:pageopacity="0"
   guidetolerance="10"
   gridtolerance="10"
   objecttolerance="10"
   borderopacity="1"
   bordercolor="#666666"
   pagecolor="#ffffff" />
<path
   id="path2"
   d="M429.663,220.517c0-0.048,0.006-0.096,0.006-0.145C429.669,190.871,351.915,0,256,0  S82.331,190.871,82.331,220.372c0,0.048,0.006,0.096,0.006,0.145c0,0.045-0.006,0.091-0.006,0.136  c0,27.481,117.097,171.949,173.669,171.949c55.356,0,173.669-144.468,173.669-171.949c0-0.047-0.006-0.094-0.006-0.14  C429.663,220.514,429.663,220.515,429.663,220.517z"
   style="fill:#135370;" />
<g
   id="g8">
	<path
   id="path4"
   d="M372.039,216.611h-19.724v-57.202h19.724c10.164,0,18.404,8.24,18.404,18.404v20.394   C390.443,208.372,382.203,216.611,372.039,216.611z"
   style="fill:#F4C892;" />
	<path
   id="path6"
   d="M139.961,216.611h19.724v-57.202h-19.724c-10.164,0-18.404,8.24-18.404,18.404v20.394   C121.557,208.372,129.796,216.611,139.961,216.611z"
   style="fill:#F4C892;" />
</g>
<g
   id="g14">
	<path
   id="path10"
   d="M323.186,318.475l-12.442-2.501c-8.828-1.774-15.18-9.529-15.18-18.534v-17.926h-81.382v18.379   c0,9.005-6.351,16.76-15.18,18.534l-10.189,2.048v68.432h134.372v-68.432H323.186z"
   style="fill:#FED9A8;" />
	<path
   id="path12"
   d="M256,293.007L256,293.007c-58.754,0-106.384-47.63-106.384-106.384v-29.897   c0-58.754,47.63-106.384,106.384-106.384l0,0c58.754,0,106.384,47.63,106.384,106.384v29.897   C362.384,245.377,314.754,293.007,256,293.007z"
   style="fill:#FED9A8;" />
</g>
<path
   id="path16"
   d="M256,50.342L256,50.342c-9.601,0-18.902,1.279-27.75,3.664  c45.296,12.207,78.634,53.567,78.634,102.72v29.897c0,49.153-33.338,90.512-78.634,102.72c8.848,2.384,18.149,3.664,27.75,3.664l0,0  c58.754,0,106.384-47.63,106.384-106.384v-29.897C362.384,97.972,314.754,50.342,256,50.342z"
   style="fill:#F4CE9F;" />
<path
   id="path18"
   d="M256,159.883c95.757,0,173.409,33.179,173.663,60.634c0-0.048,0.006-0.096,0.006-0.145  C429.669,190.871,351.915,0,256,0S82.331,190.871,82.331,220.372c0,0.048,0.006,0.096,0.006,0.145  C82.591,193.062,160.243,159.883,256,159.883z"
   style="fill:#1E608B;" />
<path
   id="path20"
   d="M256,0c-8.445,0-16.749,1.486-24.872,4.205C293.071,24.94,344.46,117.734,367.259,175.98  c38.025,12.125,62.262,29.221,62.404,44.537c0-0.048,0.006-0.096,0.006-0.145C429.669,190.871,351.915,0,256,0z"
   style="fill:#135370;" />
<path
   id="path22"
   d="M490.51,500.388c-4.625-34.01-23.423-132.63-87.989-158.538l-73.643-22.961H183.122L109.48,341.85  c-64.566,25.908-83.365,124.527-87.99,158.538C20.654,506.534,25.447,512,31.65,512h448.7  C486.553,512,491.346,506.534,490.51,500.388z"
   style="fill:#1E608B;" />
<path
   id="path24"
   d="M490.51,500.388c-4.625-34.01-23.423-132.63-87.989-158.538l-73.643-22.961h-56.703l73.643,22.961  C424.224,373.312,435.139,512,435.139,512h45.211C486.553,512,491.346,506.534,490.51,500.388z"
   style="fill:#135370;" />
<path
   id="path26"
   d="M401.596,315.163H110.404c-9.664,0-17.498,7.834-17.498,17.498V498.59h326.189V332.661  C419.094,322.997,411.26,315.163,401.596,315.163z"
   style="fill:#CFCFCF;" />
<path
   id="path28"
   d="M401.597,315.163h-55.5c9.664,0,17.498,7.834,17.498,17.498V498.59h55.5V332.661  C419.094,322.997,411.26,315.163,401.597,315.163z"
   style="fill:#C2C4C6;" />
<path
   id="path30"
   d="M429.621,485.575H82.379c-6.585,0-11.923,5.338-11.923,11.923v2.579  c0,6.585,5.338,11.923,11.923,11.923h347.242c6.585,0,11.923-5.338,11.923-11.923v-2.579  C441.544,490.913,436.206,485.575,429.621,485.575z"
   style="fill:#9C9DA0;" />
<path
   id="path32"
   d="M429.621,485.575H385.7V512h43.921c6.585,0,11.923-5.338,11.923-11.923v-2.579  C441.544,490.913,436.206,485.575,429.621,485.575z"
   style="fill:#8D8F93;" />
<circle
   id="circle34"
   r="24.482"
   cy="407.33"
   cx="256"
   style="fill:#FFFFFF;" />
<g
   id="g46">
	<path
   id="path36"
   d="M282.501,187.978c-19.241-7.133-33.597-7.193-53.002,0l0,0c1.386,2.828,2.078,4.243,3.464,7.071   c0.391,0.799,0.828,1.57,1.281,2.331c16.536-5.67,27.103-5.656,43.625,0.055C279.721,193.653,280.648,191.761,282.501,187.978z"
   style="fill:#4D4D4D;" />
	<path
   id="path38"
   d="M362.384,186.623v-5.564h-36.565l0,0v7.874c0,0.89,0.048,1.774,0.118,2.657h36.331   C362.342,189.944,362.384,188.289,362.384,186.623z"
   style="fill:#4D4D4D;" />
	<path
   id="path40"
   d="M149.616,181.06v5.564c0,1.666,0.052,3.32,0.128,4.967h36.437V181.06H149.616z"
   style="fill:#4D4D4D;" />
	<path
   id="path42"
   d="M225.485,215.299h-39.406c-4.341,0-7.86-3.519-7.86-7.86v-22.433c0-4.341,3.519-7.86,7.86-7.86   h49.118c4.341,0,7.86,3.519,7.86,7.86v12.721C243.057,207.432,235.19,215.299,225.485,215.299z"
   style="fill:#4D4D4D;" />
	<path
   id="path44"
   d="M286.515,215.299h39.406c4.341,0,7.86-3.519,7.86-7.86v-22.433c0-4.341-3.519-7.86-7.86-7.86   h-49.118c-4.341,0-7.86,3.519-7.86,7.86v12.721C268.943,207.432,276.81,215.299,286.515,215.299z"
   style="fill:#4D4D4D;" />
</g>
<g
   id="g52">
	<path
   id="path48"
   d="M325.921,177.145h-47.713v36.066c2.474,1.33,5.301,2.088,8.307,2.088h39.406   c4.341,0,7.86-3.519,7.86-7.86v-22.433C333.781,180.665,330.262,177.145,325.921,177.145z"
   style="fill:#353535;" />
	<path
   id="path50"
   d="M235.197,177.145h-47.739v38.154h38.027c9.705,0,17.572-7.867,17.572-17.572v-12.721   C243.057,180.665,239.538,177.145,235.197,177.145z"
   style="fill:#353535;" />
</g>
<g
   id="g54">
</g>
<g
   id="g56">
</g>
<g
   id="g58">
</g>
<g
   id="g60">
</g>
<g
   id="g62">
</g>
<g
   id="g64">
</g>
<g
   id="g66">
</g>
<g
   id="g68">
</g>
<g
   id="g70">
</g>
<g
   id="g72">
</g>
<g
   id="g74">
</g>
<g
   id="g76">
</g>
<g
   id="g78">
</g>
<g
   id="g80">
</g>
<g
   id="g82">
</g>
</svg>
